# Blender 4.5.0
# www.blender.org
mtllib LaserBoss.mtl
o LaserBoss
v 0.809017 -2.212739 -0.587785
v 0.309017 -2.212739 -0.951057
v -0.309017 -2.212739 -0.951057
v -0.809017 -2.212739 -0.587785
v -1.000000 -2.212739 0.000000
v -0.809017 -2.212739 0.587785
v -0.309017 -2.212739 0.951057
v 0.309017 -2.212739 0.951057
v 0.809017 -2.212739 0.587785
v 1.000000 -2.212739 0.000000
v 0.809017 2.212739 -0.587785
v 0.309017 2.212739 -0.951057
v -0.309017 2.212739 -0.951057
v -0.809017 2.212739 -0.587785
v -1.000000 2.212739 -0.000000
v -0.809017 2.212739 0.587785
v -0.309017 2.212739 0.951057
v 0.309017 2.212739 0.951057
v 0.809017 2.212739 0.587785
v 1.000000 2.212739 -0.000000
v -0.000000 -2.212739 0.000000
v -0.000000 2.212739 -0.000000
vn 0.5878 -0.0000 -0.8090
vn 0.5878 -0.0001 -0.8090
vn -0.0000 -0.0000 -1.0000
vn -0.5878 0.0001 -0.8090
vn -0.5878 -0.0000 -0.8090
vn -0.9511 -0.0000 -0.3090
vn -0.9511 -0.0000 0.3090
vn -0.5878 -0.0000 0.8090
vn -0.0000 -0.0000 1.0000
vn 0.5878 0.0001 0.8090
vn 0.5878 -0.0000 0.8090
vn 0.9511 -0.0000 0.3090
vn -0.0000 -1.0000 -0.0000
vn -0.0000 1.0000 -0.0000
vt 0.001953 0.001953
vt 0.098997 0.001953
vt 0.098997 0.696844
vt 0.001953 0.696844
vt 0.196041 0.001953
vt 0.196041 0.696844
vt 0.293085 0.001953
vt 0.293085 0.696844
vt 0.390129 0.001953
vt 0.390129 0.696844
vt 0.487173 0.001953
vt 0.487173 0.696844
vt 0.584217 0.001953
vt 0.584217 0.696844
vt 0.681261 0.001953
vt 0.681261 0.696844
vt 0.778305 0.001953
vt 0.778305 0.696844
vt 0.875349 0.001953
vt 0.875349 0.696844
vt 0.972393 0.001953
vt 0.972393 0.696844
vt 0.344248 0.699376
vt 0.422758 0.756417
vt 0.295726 0.848711
vt 0.247204 0.699376
vt 0.168694 0.756417
vt 0.138705 0.848711
vt 0.168694 0.941006
vt 0.247204 0.998047
vt 0.344248 0.998047
vt 0.422758 0.941006
vt 0.452746 0.848711
vt 0.513508 0.848711
vt 0.543496 0.756417
vt 0.670529 0.848711
vt 0.622007 0.699376
vt 0.719051 0.699376
vt 0.797561 0.756417
vt 0.827549 0.848711
vt 0.797561 0.941006
vt 0.719051 0.998047
vt 0.622007 0.998047
vt 0.543497 0.941006
s 1
usemtl laser:initialShadingGroup
f 1/1/1 2/2/1 12/3/1 11/4/2
f 2/2/1 3/5/3 13/6/3 12/3/1
f 3/5/3 4/7/4 14/8/5 13/6/3
f 4/7/4 5/9/6 15/10/6 14/8/5
f 5/9/6 6/11/7 16/12/7 15/10/6
f 6/11/7 7/13/8 17/14/8 16/12/7
f 7/13/8 8/15/9 18/16/9 17/14/8
f 8/15/9 9/17/10 19/18/11 18/16/9
f 9/17/10 10/19/12 20/20/12 19/18/11
f 10/19/12 1/21/1 11/22/2 20/20/12
f 2/23/13 1/24/13 21/25/13
f 3/26/13 2/23/13 21/25/13
f 4/27/13 3/26/13 21/25/13
f 5/28/13 4/27/13 21/25/13
f 6/29/13 5/28/13 21/25/13
f 7/30/13 6/29/13 21/25/13
f 8/31/13 7/30/13 21/25/13
f 9/32/13 8/31/13 21/25/13
f 10/33/13 9/32/13 21/25/13
f 1/24/13 10/33/13 21/25/13
f 11/34/14 12/35/14 22/36/14
f 12/35/14 13/37/14 22/36/14
f 13/37/14 14/38/14 22/36/14
f 14/38/14 15/39/14 22/36/14
f 15/39/14 16/40/14 22/36/14
f 16/40/14 17/41/14 22/36/14
f 17/41/14 18/42/14 22/36/14
f 18/42/14 19/43/14 22/36/14
f 19/43/14 20/44/14 22/36/14
f 20/44/14 11/34/14 22/36/14
