# Blender 4.2.3 LTS
# www.blender.org
mtllib skybox.mtl
o Cube
v 0.500000 0.500000 -0.500000
v 0.500000 -0.500000 -0.500000
v 0.500000 0.500000 0.500000
v 0.500000 -0.500000 0.500000
v -0.500000 0.500000 -0.500000
v -0.500000 -0.500000 -0.500000
v -0.500000 0.500000 0.500000
v -0.500000 -0.500000 0.500000
vn -0.0000 0.5000 -0.0000
vn -0.0000 -0.0000 0.5000
vn -0.5000 -0.0000 -0.0000
vn -0.0000 -0.5000 -0.0000
vn 0.5000 -0.0000 -0.0000
vn -0.0000 -0.0000 -0.5000
vt 0.497625 0.661458
vt 0.498271 0.994790
vt 0.249015 0.995435
vt 0.248370 0.662103
vt 0.251631 0.337885
vt 0.004230 0.662748
vt 0.003585 0.338531
vt 0.995770 0.337252
vt 0.996415 0.660167
vt 0.623369 0.660812
vt 0.622724 0.337897
vt 0.496587 0.000994
vt 0.497232 0.338542
vt 0.250986 0.001639
s 0
usemtl Material
f 1/1/1 5/2/1 7/3/1 3/4/1
f 4/5/2 3/4/2 7/6/2 8/7/2
f 8/8/3 7/9/3 5/10/3 6/11/3
f 6/12/4 2/13/4 4/5/4 8/14/4
f 2/13/5 1/1/5 3/4/5 4/5/5
f 6/11/6 5/10/6 1/1/6 2/13/6
